<mxfile host="app.diagrams.net" modified="2022-10-22T15:04:22.076Z" agent="5.0 (Windows NT 10.0; Win64; x64) AppleWebKit/537.36 (KHTML, like Gecko) Chrome/105.0.0.0 Safari/537.36 OPR/91.0.4516.72" etag="vUHmU8ggi4rEM-ws0qoE" version="20.4.1" type="github">
  <diagram id="uzUdkCHydfrSflka443V" name="Страница 1">
    <mxGraphModel dx="3129" dy="2494" grid="1" gridSize="10" guides="1" tooltips="1" connect="1" arrows="1" fold="1" page="1" pageScale="1" pageWidth="827" pageHeight="1169" math="0" shadow="0">
      <root>
        <mxCell id="0" />
        <mxCell id="1" parent="0" />
        <mxCell id="jbp8lbYopmbo1rsb0xGf-5" style="edgeStyle=orthogonalEdgeStyle;rounded=0;orthogonalLoop=1;jettySize=auto;html=1;endArrow=open;endFill=0;endSize=10;startSize=10;" edge="1" parent="1" source="jbp8lbYopmbo1rsb0xGf-6" target="jbp8lbYopmbo1rsb0xGf-16">
          <mxGeometry relative="1" as="geometry" />
        </mxCell>
        <mxCell id="jbp8lbYopmbo1rsb0xGf-157" style="edgeStyle=orthogonalEdgeStyle;rounded=0;orthogonalLoop=1;jettySize=auto;html=1;endArrow=open;endFill=0;startSize=10;endSize=10;dashed=1;" edge="1" parent="1" source="jbp8lbYopmbo1rsb0xGf-6" target="jbp8lbYopmbo1rsb0xGf-134">
          <mxGeometry relative="1" as="geometry" />
        </mxCell>
        <mxCell id="jbp8lbYopmbo1rsb0xGf-158" style="edgeStyle=orthogonalEdgeStyle;rounded=0;orthogonalLoop=1;jettySize=auto;html=1;dashed=1;endArrow=open;endFill=0;startSize=10;endSize=10;" edge="1" parent="1" source="jbp8lbYopmbo1rsb0xGf-6" target="jbp8lbYopmbo1rsb0xGf-123">
          <mxGeometry relative="1" as="geometry" />
        </mxCell>
        <mxCell id="jbp8lbYopmbo1rsb0xGf-6" value="OrdersController" style="swimlane;fontStyle=1;align=center;verticalAlign=top;childLayout=stackLayout;horizontal=1;startSize=26;horizontalStack=0;resizeParent=1;resizeParentMax=0;resizeLast=0;collapsible=1;marginBottom=0;" vertex="1" parent="1">
          <mxGeometry x="202.5" y="470" width="457.5" height="86" as="geometry" />
        </mxCell>
        <mxCell id="jbp8lbYopmbo1rsb0xGf-7" value="- ordersStatisticService: IOrdersStatisticService" style="text;strokeColor=none;fillColor=none;align=left;verticalAlign=top;spacingLeft=4;spacingRight=4;overflow=hidden;rotatable=0;points=[[0,0.5],[1,0.5]];portConstraint=eastwest;" vertex="1" parent="jbp8lbYopmbo1rsb0xGf-6">
          <mxGeometry y="26" width="457.5" height="26" as="geometry" />
        </mxCell>
        <mxCell id="jbp8lbYopmbo1rsb0xGf-8" value="" style="line;strokeWidth=1;fillColor=none;align=left;verticalAlign=middle;spacingTop=-1;spacingLeft=3;spacingRight=3;rotatable=0;labelPosition=right;points=[];portConstraint=eastwest;strokeColor=inherit;" vertex="1" parent="jbp8lbYopmbo1rsb0xGf-6">
          <mxGeometry y="52" width="457.5" height="8" as="geometry" />
        </mxCell>
        <mxCell id="jbp8lbYopmbo1rsb0xGf-9" value="+ getStatistic(requestDto: RequestOrdersStatisticDto): CategoryStatisticDto[]" style="text;strokeColor=none;fillColor=none;align=left;verticalAlign=top;spacingLeft=4;spacingRight=4;overflow=hidden;rotatable=0;points=[[0,0.5],[1,0.5]];portConstraint=eastwest;" vertex="1" parent="jbp8lbYopmbo1rsb0xGf-6">
          <mxGeometry y="60" width="457.5" height="26" as="geometry" />
        </mxCell>
        <mxCell id="jbp8lbYopmbo1rsb0xGf-10" style="edgeStyle=orthogonalEdgeStyle;rounded=0;orthogonalLoop=1;jettySize=auto;html=1;endArrow=block;endFill=0;startSize=10;endSize=10;dashed=1;" edge="1" parent="1" source="jbp8lbYopmbo1rsb0xGf-12" target="jbp8lbYopmbo1rsb0xGf-16">
          <mxGeometry relative="1" as="geometry" />
        </mxCell>
        <mxCell id="jbp8lbYopmbo1rsb0xGf-11" style="edgeStyle=orthogonalEdgeStyle;rounded=0;orthogonalLoop=1;jettySize=auto;html=1;startArrow=none;startFill=0;endArrow=open;endFill=0;startSize=10;endSize=10;" edge="1" parent="1" source="jbp8lbYopmbo1rsb0xGf-12" target="jbp8lbYopmbo1rsb0xGf-25">
          <mxGeometry relative="1" as="geometry" />
        </mxCell>
        <mxCell id="jbp8lbYopmbo1rsb0xGf-12" value="OrdersStatisticService" style="swimlane;fontStyle=1;align=center;verticalAlign=top;childLayout=stackLayout;horizontal=1;startSize=26;horizontalStack=0;resizeParent=1;resizeParentMax=0;resizeLast=0;collapsible=1;marginBottom=0;" vertex="1" parent="1">
          <mxGeometry x="215" y="120" width="390" height="86" as="geometry" />
        </mxCell>
        <mxCell id="jbp8lbYopmbo1rsb0xGf-29" value="- ordersRepository: IOrdersRepository" style="text;strokeColor=none;fillColor=none;align=left;verticalAlign=top;spacingLeft=4;spacingRight=4;overflow=hidden;rotatable=0;points=[[0,0.5],[1,0.5]];portConstraint=eastwest;" vertex="1" parent="jbp8lbYopmbo1rsb0xGf-12">
          <mxGeometry y="26" width="390" height="26" as="geometry" />
        </mxCell>
        <mxCell id="jbp8lbYopmbo1rsb0xGf-14" value="" style="line;strokeWidth=1;fillColor=none;align=left;verticalAlign=middle;spacingTop=-1;spacingLeft=3;spacingRight=3;rotatable=0;labelPosition=right;points=[];portConstraint=eastwest;strokeColor=inherit;" vertex="1" parent="jbp8lbYopmbo1rsb0xGf-12">
          <mxGeometry y="52" width="390" height="8" as="geometry" />
        </mxCell>
        <mxCell id="jbp8lbYopmbo1rsb0xGf-161" value="+ getStatistic(requestDto: RequestOrdersStatisticDto): CategoryStatisticDto[]" style="text;strokeColor=none;fillColor=none;align=left;verticalAlign=top;spacingLeft=4;spacingRight=4;overflow=hidden;rotatable=0;points=[[0,0.5],[1,0.5]];portConstraint=eastwest;" vertex="1" parent="jbp8lbYopmbo1rsb0xGf-12">
          <mxGeometry y="60" width="390" height="26" as="geometry" />
        </mxCell>
        <mxCell id="jbp8lbYopmbo1rsb0xGf-16" value="&lt;&lt;interface&gt;&gt;&#xa;IOrdersStatisticService" style="swimlane;fontStyle=1;align=center;verticalAlign=top;childLayout=stackLayout;horizontal=1;startSize=40;horizontalStack=0;resizeParent=1;resizeParentMax=0;resizeLast=0;collapsible=1;marginBottom=0;" vertex="1" parent="1">
          <mxGeometry x="206.25" y="300" width="407.5" height="74" as="geometry" />
        </mxCell>
        <mxCell id="jbp8lbYopmbo1rsb0xGf-17" value="" style="line;strokeWidth=1;fillColor=none;align=left;verticalAlign=middle;spacingTop=-1;spacingLeft=3;spacingRight=3;rotatable=0;labelPosition=right;points=[];portConstraint=eastwest;strokeColor=inherit;" vertex="1" parent="jbp8lbYopmbo1rsb0xGf-16">
          <mxGeometry y="40" width="407.5" height="8" as="geometry" />
        </mxCell>
        <mxCell id="jbp8lbYopmbo1rsb0xGf-160" value="+ getStatistic(requestDto: RequestOrdersStatisticDto): CategoryStatisticDto[]" style="text;strokeColor=none;fillColor=none;align=left;verticalAlign=top;spacingLeft=4;spacingRight=4;overflow=hidden;rotatable=0;points=[[0,0.5],[1,0.5]];portConstraint=eastwest;" vertex="1" parent="jbp8lbYopmbo1rsb0xGf-16">
          <mxGeometry y="48" width="407.5" height="26" as="geometry" />
        </mxCell>
        <mxCell id="jbp8lbYopmbo1rsb0xGf-19" style="edgeStyle=orthogonalEdgeStyle;rounded=0;orthogonalLoop=1;jettySize=auto;html=1;endArrow=block;endFill=0;startSize=10;endSize=10;dashed=1;" edge="1" parent="1" source="jbp8lbYopmbo1rsb0xGf-20" target="jbp8lbYopmbo1rsb0xGf-25">
          <mxGeometry relative="1" as="geometry" />
        </mxCell>
        <mxCell id="jbp8lbYopmbo1rsb0xGf-188" style="edgeStyle=orthogonalEdgeStyle;rounded=0;orthogonalLoop=1;jettySize=auto;html=1;dashed=1;endArrow=open;endFill=0;startSize=10;endSize=10;" edge="1" parent="1" source="jbp8lbYopmbo1rsb0xGf-20" target="jbp8lbYopmbo1rsb0xGf-68">
          <mxGeometry relative="1" as="geometry">
            <Array as="points">
              <mxPoint x="460" y="-435" />
            </Array>
          </mxGeometry>
        </mxCell>
        <mxCell id="jbp8lbYopmbo1rsb0xGf-20" value="OrdersRepository" style="swimlane;fontStyle=1;align=center;verticalAlign=top;childLayout=stackLayout;horizontal=1;startSize=26;horizontalStack=0;resizeParent=1;resizeParentMax=0;resizeLast=0;collapsible=1;marginBottom=0;" vertex="1" parent="1">
          <mxGeometry x="207.5" y="-266" width="405" height="60" as="geometry" />
        </mxCell>
        <mxCell id="jbp8lbYopmbo1rsb0xGf-22" value="" style="line;strokeWidth=1;fillColor=none;align=left;verticalAlign=middle;spacingTop=-1;spacingLeft=3;spacingRight=3;rotatable=0;labelPosition=right;points=[];portConstraint=eastwest;strokeColor=inherit;" vertex="1" parent="jbp8lbYopmbo1rsb0xGf-20">
          <mxGeometry y="26" width="405" height="8" as="geometry" />
        </mxCell>
        <mxCell id="jbp8lbYopmbo1rsb0xGf-187" value="+ getStatistic(requestDto: RequestOrdersStatisticDto): Order[]" style="text;strokeColor=none;fillColor=none;align=left;verticalAlign=top;spacingLeft=4;spacingRight=4;overflow=hidden;rotatable=0;points=[[0,0.5],[1,0.5]];portConstraint=eastwest;" vertex="1" parent="jbp8lbYopmbo1rsb0xGf-20">
          <mxGeometry y="34" width="405" height="26" as="geometry" />
        </mxCell>
        <mxCell id="jbp8lbYopmbo1rsb0xGf-25" value="&lt;&lt;interface&gt;&gt;&#xa;IOrdersRepository" style="swimlane;fontStyle=1;align=center;verticalAlign=top;childLayout=stackLayout;horizontal=1;startSize=40;horizontalStack=0;resizeParent=1;resizeParentMax=0;resizeLast=0;collapsible=1;marginBottom=0;" vertex="1" parent="1">
          <mxGeometry x="186.25" y="-60" width="447.5" height="74" as="geometry" />
        </mxCell>
        <mxCell id="jbp8lbYopmbo1rsb0xGf-26" value="" style="line;strokeWidth=1;fillColor=none;align=left;verticalAlign=middle;spacingTop=-1;spacingLeft=3;spacingRight=3;rotatable=0;labelPosition=right;points=[];portConstraint=eastwest;strokeColor=inherit;" vertex="1" parent="jbp8lbYopmbo1rsb0xGf-25">
          <mxGeometry y="40" width="447.5" height="8" as="geometry" />
        </mxCell>
        <mxCell id="jbp8lbYopmbo1rsb0xGf-162" value="+ getStatistic(requestDto: RequestOrdersStatisticDto): Order[]" style="text;strokeColor=none;fillColor=none;align=left;verticalAlign=top;spacingLeft=4;spacingRight=4;overflow=hidden;rotatable=0;points=[[0,0.5],[1,0.5]];portConstraint=eastwest;" vertex="1" parent="jbp8lbYopmbo1rsb0xGf-25">
          <mxGeometry y="48" width="447.5" height="26" as="geometry" />
        </mxCell>
        <mxCell id="jbp8lbYopmbo1rsb0xGf-30" value="Product" style="swimlane;fontStyle=1;align=center;verticalAlign=top;childLayout=stackLayout;horizontal=1;startSize=26;horizontalStack=0;resizeParent=1;resizeParentMax=0;resizeLast=0;collapsible=1;marginBottom=0;" vertex="1" parent="1">
          <mxGeometry x="740" y="-190" width="320" height="156" as="geometry" />
        </mxCell>
        <mxCell id="jbp8lbYopmbo1rsb0xGf-32" value="+ id: string&#xa;" style="text;strokeColor=none;fillColor=none;align=left;verticalAlign=top;spacingLeft=4;spacingRight=4;overflow=hidden;rotatable=0;points=[[0,0.5],[1,0.5]];portConstraint=eastwest;" vertex="1" parent="jbp8lbYopmbo1rsb0xGf-30">
          <mxGeometry y="26" width="320" height="26" as="geometry" />
        </mxCell>
        <mxCell id="jbp8lbYopmbo1rsb0xGf-35" value="+ name: string&#xa;" style="text;strokeColor=none;fillColor=none;align=left;verticalAlign=top;spacingLeft=4;spacingRight=4;overflow=hidden;rotatable=0;points=[[0,0.5],[1,0.5]];portConstraint=eastwest;" vertex="1" parent="jbp8lbYopmbo1rsb0xGf-30">
          <mxGeometry y="52" width="320" height="26" as="geometry" />
        </mxCell>
        <mxCell id="jbp8lbYopmbo1rsb0xGf-37" value="+ cost: number" style="text;strokeColor=none;fillColor=none;align=left;verticalAlign=top;spacingLeft=4;spacingRight=4;overflow=hidden;rotatable=0;points=[[0,0.5],[1,0.5]];portConstraint=eastwest;" vertex="1" parent="jbp8lbYopmbo1rsb0xGf-30">
          <mxGeometry y="78" width="320" height="26" as="geometry" />
        </mxCell>
        <mxCell id="jbp8lbYopmbo1rsb0xGf-38" value="+ categoryIds: string[]" style="text;strokeColor=none;fillColor=none;align=left;verticalAlign=top;spacingLeft=4;spacingRight=4;overflow=hidden;rotatable=0;points=[[0,0.5],[1,0.5]];portConstraint=eastwest;" vertex="1" parent="jbp8lbYopmbo1rsb0xGf-30">
          <mxGeometry y="104" width="320" height="26" as="geometry" />
        </mxCell>
        <mxCell id="jbp8lbYopmbo1rsb0xGf-39" value="+ manufacturerId: string" style="text;strokeColor=none;fillColor=none;align=left;verticalAlign=top;spacingLeft=4;spacingRight=4;overflow=hidden;rotatable=0;points=[[0,0.5],[1,0.5]];portConstraint=eastwest;" vertex="1" parent="jbp8lbYopmbo1rsb0xGf-30">
          <mxGeometry y="130" width="320" height="26" as="geometry" />
        </mxCell>
        <mxCell id="jbp8lbYopmbo1rsb0xGf-40" value="Manufacturer" style="swimlane;fontStyle=1;align=center;verticalAlign=top;childLayout=stackLayout;horizontal=1;startSize=26;horizontalStack=0;resizeParent=1;resizeParentMax=0;resizeLast=0;collapsible=1;marginBottom=0;" vertex="1" parent="1">
          <mxGeometry x="740" y="-320" width="320" height="78" as="geometry" />
        </mxCell>
        <mxCell id="jbp8lbYopmbo1rsb0xGf-41" value="+ id: string&#xa;" style="text;strokeColor=none;fillColor=none;align=left;verticalAlign=top;spacingLeft=4;spacingRight=4;overflow=hidden;rotatable=0;points=[[0,0.5],[1,0.5]];portConstraint=eastwest;" vertex="1" parent="jbp8lbYopmbo1rsb0xGf-40">
          <mxGeometry y="26" width="320" height="26" as="geometry" />
        </mxCell>
        <mxCell id="jbp8lbYopmbo1rsb0xGf-42" value="+ name: string&#xa;" style="text;strokeColor=none;fillColor=none;align=left;verticalAlign=top;spacingLeft=4;spacingRight=4;overflow=hidden;rotatable=0;points=[[0,0.5],[1,0.5]];portConstraint=eastwest;" vertex="1" parent="jbp8lbYopmbo1rsb0xGf-40">
          <mxGeometry y="52" width="320" height="26" as="geometry" />
        </mxCell>
        <mxCell id="jbp8lbYopmbo1rsb0xGf-46" value="Category" style="swimlane;fontStyle=1;align=center;verticalAlign=top;childLayout=stackLayout;horizontal=1;startSize=26;horizontalStack=0;resizeParent=1;resizeParentMax=0;resizeLast=0;collapsible=1;marginBottom=0;" vertex="1" parent="1">
          <mxGeometry x="740" y="20" width="320" height="130" as="geometry" />
        </mxCell>
        <mxCell id="jbp8lbYopmbo1rsb0xGf-47" value="+ id: string&#xa;" style="text;strokeColor=none;fillColor=none;align=left;verticalAlign=top;spacingLeft=4;spacingRight=4;overflow=hidden;rotatable=0;points=[[0,0.5],[1,0.5]];portConstraint=eastwest;" vertex="1" parent="jbp8lbYopmbo1rsb0xGf-46">
          <mxGeometry y="26" width="320" height="26" as="geometry" />
        </mxCell>
        <mxCell id="jbp8lbYopmbo1rsb0xGf-48" value="+ name: string&#xa;" style="text;strokeColor=none;fillColor=none;align=left;verticalAlign=top;spacingLeft=4;spacingRight=4;overflow=hidden;rotatable=0;points=[[0,0.5],[1,0.5]];portConstraint=eastwest;" vertex="1" parent="jbp8lbYopmbo1rsb0xGf-46">
          <mxGeometry y="52" width="320" height="26" as="geometry" />
        </mxCell>
        <mxCell id="jbp8lbYopmbo1rsb0xGf-50" value="+ parentCategoryId: string" style="text;strokeColor=none;fillColor=none;align=left;verticalAlign=top;spacingLeft=4;spacingRight=4;overflow=hidden;rotatable=0;points=[[0,0.5],[1,0.5]];portConstraint=eastwest;" vertex="1" parent="jbp8lbYopmbo1rsb0xGf-46">
          <mxGeometry y="78" width="320" height="26" as="geometry" />
        </mxCell>
        <mxCell id="jbp8lbYopmbo1rsb0xGf-142" value="+ childCategoryIds: string[]" style="text;strokeColor=none;fillColor=none;align=left;verticalAlign=top;spacingLeft=4;spacingRight=4;overflow=hidden;rotatable=0;points=[[0,0.5],[1,0.5]];portConstraint=eastwest;" vertex="1" parent="jbp8lbYopmbo1rsb0xGf-46">
          <mxGeometry y="104" width="320" height="26" as="geometry" />
        </mxCell>
        <mxCell id="jbp8lbYopmbo1rsb0xGf-63" style="edgeStyle=orthogonalEdgeStyle;rounded=0;orthogonalLoop=1;jettySize=auto;html=1;endArrow=open;endFill=0;startSize=10;endSize=10;fontColor=#FF0000;" edge="1" parent="1" source="jbp8lbYopmbo1rsb0xGf-52" target="jbp8lbYopmbo1rsb0xGf-56">
          <mxGeometry relative="1" as="geometry" />
        </mxCell>
        <mxCell id="jbp8lbYopmbo1rsb0xGf-52" value="ProductsQueryBuilderDecorator" style="swimlane;fontStyle=1;align=center;verticalAlign=top;childLayout=stackLayout;horizontal=1;startSize=26;horizontalStack=0;resizeParent=1;resizeParentMax=0;resizeLast=0;collapsible=1;marginBottom=0;fontColor=#FF0000;" vertex="1" parent="1">
          <mxGeometry x="-500" y="-396" width="415" height="112" as="geometry" />
        </mxCell>
        <mxCell id="jbp8lbYopmbo1rsb0xGf-53" value="- strategy: IProductsSortingStrategy" style="text;strokeColor=none;fillColor=none;align=left;verticalAlign=top;spacingLeft=4;spacingRight=4;overflow=hidden;rotatable=0;points=[[0,0.5],[1,0.5]];portConstraint=eastwest;fontColor=#FF0000;" vertex="1" parent="jbp8lbYopmbo1rsb0xGf-52">
          <mxGeometry y="26" width="415" height="26" as="geometry" />
        </mxCell>
        <mxCell id="jbp8lbYopmbo1rsb0xGf-54" value="" style="line;strokeWidth=1;fillColor=none;align=left;verticalAlign=middle;spacingTop=-1;spacingLeft=3;spacingRight=3;rotatable=0;labelPosition=right;points=[];portConstraint=eastwest;strokeColor=inherit;fontColor=#FF0000;" vertex="1" parent="jbp8lbYopmbo1rsb0xGf-52">
          <mxGeometry y="52" width="415" height="8" as="geometry" />
        </mxCell>
        <mxCell id="jbp8lbYopmbo1rsb0xGf-55" value="+ sort(products: Product[]) : Product[]" style="text;strokeColor=none;fillColor=none;align=left;verticalAlign=top;spacingLeft=4;spacingRight=4;overflow=hidden;rotatable=0;points=[[0,0.5],[1,0.5]];portConstraint=eastwest;fontColor=#FF0000;" vertex="1" parent="jbp8lbYopmbo1rsb0xGf-52">
          <mxGeometry y="60" width="415" height="26" as="geometry" />
        </mxCell>
        <mxCell id="jbp8lbYopmbo1rsb0xGf-61" value="+ setStrategy(strategy: IProductSortingStrategy)" style="text;strokeColor=none;fillColor=none;align=left;verticalAlign=top;spacingLeft=4;spacingRight=4;overflow=hidden;rotatable=0;points=[[0,0.5],[1,0.5]];portConstraint=eastwest;fontColor=#FF0000;" vertex="1" parent="jbp8lbYopmbo1rsb0xGf-52">
          <mxGeometry y="86" width="415" height="26" as="geometry" />
        </mxCell>
        <mxCell id="jbp8lbYopmbo1rsb0xGf-56" value="&lt;&lt;interface&gt;&gt;&#xa;ProductQueryBuilder" style="swimlane;fontStyle=1;align=center;verticalAlign=top;childLayout=stackLayout;horizontal=1;startSize=46;horizontalStack=0;resizeParent=1;resizeParentMax=0;resizeLast=0;collapsible=1;marginBottom=0;fontColor=#FF0000;" vertex="1" parent="1">
          <mxGeometry x="-500" y="-580" width="415" height="106" as="geometry" />
        </mxCell>
        <mxCell id="jbp8lbYopmbo1rsb0xGf-57" value="- productsStatisticService: IProductsStatisticService" style="text;strokeColor=none;fillColor=none;align=left;verticalAlign=top;spacingLeft=4;spacingRight=4;overflow=hidden;rotatable=0;points=[[0,0.5],[1,0.5]];portConstraint=eastwest;fontColor=#FF0000;" vertex="1" parent="jbp8lbYopmbo1rsb0xGf-56">
          <mxGeometry y="46" width="415" height="26" as="geometry" />
        </mxCell>
        <mxCell id="jbp8lbYopmbo1rsb0xGf-58" value="" style="line;strokeWidth=1;fillColor=none;align=left;verticalAlign=middle;spacingTop=-1;spacingLeft=3;spacingRight=3;rotatable=0;labelPosition=right;points=[];portConstraint=eastwest;strokeColor=inherit;fontColor=#FF0000;" vertex="1" parent="jbp8lbYopmbo1rsb0xGf-56">
          <mxGeometry y="72" width="415" height="8" as="geometry" />
        </mxCell>
        <mxCell id="jbp8lbYopmbo1rsb0xGf-59" value="+ getPosts(requestDto:GetPostsRequestDto): PostsWithPaginationDataDto" style="text;strokeColor=none;fillColor=none;align=left;verticalAlign=top;spacingLeft=4;spacingRight=4;overflow=hidden;rotatable=0;points=[[0,0.5],[1,0.5]];portConstraint=eastwest;fontColor=#FF0000;" vertex="1" parent="jbp8lbYopmbo1rsb0xGf-56">
          <mxGeometry y="80" width="415" height="26" as="geometry" />
        </mxCell>
        <mxCell id="jbp8lbYopmbo1rsb0xGf-64" value="ProductSortingStrategy" style="swimlane;fontStyle=1;align=center;verticalAlign=top;childLayout=stackLayout;horizontal=1;startSize=30;horizontalStack=0;resizeParent=1;resizeParentMax=0;resizeLast=0;collapsible=1;marginBottom=0;fontColor=#FF0000;" vertex="1" parent="1">
          <mxGeometry x="-500" y="-740" width="415" height="90" as="geometry" />
        </mxCell>
        <mxCell id="jbp8lbYopmbo1rsb0xGf-65" value="- productsStatisticService: IProductsStatisticService" style="text;strokeColor=none;fillColor=none;align=left;verticalAlign=top;spacingLeft=4;spacingRight=4;overflow=hidden;rotatable=0;points=[[0,0.5],[1,0.5]];portConstraint=eastwest;fontColor=#FF0000;" vertex="1" parent="jbp8lbYopmbo1rsb0xGf-64">
          <mxGeometry y="30" width="415" height="26" as="geometry" />
        </mxCell>
        <mxCell id="jbp8lbYopmbo1rsb0xGf-66" value="" style="line;strokeWidth=1;fillColor=none;align=left;verticalAlign=middle;spacingTop=-1;spacingLeft=3;spacingRight=3;rotatable=0;labelPosition=right;points=[];portConstraint=eastwest;strokeColor=inherit;fontColor=#FF0000;" vertex="1" parent="jbp8lbYopmbo1rsb0xGf-64">
          <mxGeometry y="56" width="415" height="8" as="geometry" />
        </mxCell>
        <mxCell id="jbp8lbYopmbo1rsb0xGf-67" value="+ getPosts(requestDto:GetPostsRequestDto): PostsWithPaginationDataDto" style="text;strokeColor=none;fillColor=none;align=left;verticalAlign=top;spacingLeft=4;spacingRight=4;overflow=hidden;rotatable=0;points=[[0,0.5],[1,0.5]];portConstraint=eastwest;fontColor=#FF0000;" vertex="1" parent="jbp8lbYopmbo1rsb0xGf-64">
          <mxGeometry y="64" width="415" height="26" as="geometry" />
        </mxCell>
        <mxCell id="jbp8lbYopmbo1rsb0xGf-68" value="Order" style="swimlane;fontStyle=1;align=center;verticalAlign=top;childLayout=stackLayout;horizontal=1;startSize=26;horizontalStack=0;resizeParent=1;resizeParentMax=0;resizeLast=0;collapsible=1;marginBottom=0;" vertex="1" parent="1">
          <mxGeometry x="740" y="-500" width="320" height="130" as="geometry" />
        </mxCell>
        <mxCell id="jbp8lbYopmbo1rsb0xGf-69" value="+ id: string&#xa;" style="text;strokeColor=none;fillColor=none;align=left;verticalAlign=top;spacingLeft=4;spacingRight=4;overflow=hidden;rotatable=0;points=[[0,0.5],[1,0.5]];portConstraint=eastwest;" vertex="1" parent="jbp8lbYopmbo1rsb0xGf-68">
          <mxGeometry y="26" width="320" height="26" as="geometry" />
        </mxCell>
        <mxCell id="jbp8lbYopmbo1rsb0xGf-71" value="+ cost: number" style="text;strokeColor=none;fillColor=none;align=left;verticalAlign=top;spacingLeft=4;spacingRight=4;overflow=hidden;rotatable=0;points=[[0,0.5],[1,0.5]];portConstraint=eastwest;" vertex="1" parent="jbp8lbYopmbo1rsb0xGf-68">
          <mxGeometry y="52" width="320" height="26" as="geometry" />
        </mxCell>
        <mxCell id="jbp8lbYopmbo1rsb0xGf-72" value="+ orderProducts: OrderProduct" style="text;strokeColor=none;fillColor=none;align=left;verticalAlign=top;spacingLeft=4;spacingRight=4;overflow=hidden;rotatable=0;points=[[0,0.5],[1,0.5]];portConstraint=eastwest;" vertex="1" parent="jbp8lbYopmbo1rsb0xGf-68">
          <mxGeometry y="78" width="320" height="26" as="geometry" />
        </mxCell>
        <mxCell id="jbp8lbYopmbo1rsb0xGf-73" value="+ createdAt: Date" style="text;strokeColor=none;fillColor=none;align=left;verticalAlign=top;spacingLeft=4;spacingRight=4;overflow=hidden;rotatable=0;points=[[0,0.5],[1,0.5]];portConstraint=eastwest;" vertex="1" parent="jbp8lbYopmbo1rsb0xGf-68">
          <mxGeometry y="104" width="320" height="26" as="geometry" />
        </mxCell>
        <mxCell id="jbp8lbYopmbo1rsb0xGf-74" value="User" style="swimlane;fontStyle=1;align=center;verticalAlign=top;childLayout=stackLayout;horizontal=1;startSize=26;horizontalStack=0;resizeParent=1;resizeParentMax=0;resizeLast=0;collapsible=1;marginBottom=0;" vertex="1" parent="1">
          <mxGeometry x="740" y="-690" width="320" height="130" as="geometry" />
        </mxCell>
        <mxCell id="jbp8lbYopmbo1rsb0xGf-75" value="+ id: string&#xa;" style="text;strokeColor=none;fillColor=none;align=left;verticalAlign=top;spacingLeft=4;spacingRight=4;overflow=hidden;rotatable=0;points=[[0,0.5],[1,0.5]];portConstraint=eastwest;" vertex="1" parent="jbp8lbYopmbo1rsb0xGf-74">
          <mxGeometry y="26" width="320" height="26" as="geometry" />
        </mxCell>
        <mxCell id="jbp8lbYopmbo1rsb0xGf-76" value="+ username: string&#xa;" style="text;strokeColor=none;fillColor=none;align=left;verticalAlign=top;spacingLeft=4;spacingRight=4;overflow=hidden;rotatable=0;points=[[0,0.5],[1,0.5]];portConstraint=eastwest;" vertex="1" parent="jbp8lbYopmbo1rsb0xGf-74">
          <mxGeometry y="52" width="320" height="26" as="geometry" />
        </mxCell>
        <mxCell id="jbp8lbYopmbo1rsb0xGf-77" value="+ password: string" style="text;strokeColor=none;fillColor=none;align=left;verticalAlign=top;spacingLeft=4;spacingRight=4;overflow=hidden;rotatable=0;points=[[0,0.5],[1,0.5]];portConstraint=eastwest;" vertex="1" parent="jbp8lbYopmbo1rsb0xGf-74">
          <mxGeometry y="78" width="320" height="26" as="geometry" />
        </mxCell>
        <mxCell id="jbp8lbYopmbo1rsb0xGf-78" value="+ orderIds: string[]" style="text;strokeColor=none;fillColor=none;align=left;verticalAlign=top;spacingLeft=4;spacingRight=4;overflow=hidden;rotatable=0;points=[[0,0.5],[1,0.5]];portConstraint=eastwest;" vertex="1" parent="jbp8lbYopmbo1rsb0xGf-74">
          <mxGeometry y="104" width="320" height="26" as="geometry" />
        </mxCell>
        <mxCell id="jbp8lbYopmbo1rsb0xGf-89" style="edgeStyle=orthogonalEdgeStyle;rounded=0;orthogonalLoop=1;jettySize=auto;html=1;endArrow=diamond;endFill=0;startSize=10;endSize=10;" edge="1" parent="1" source="jbp8lbYopmbo1rsb0xGf-83" target="jbp8lbYopmbo1rsb0xGf-71">
          <mxGeometry relative="1" as="geometry" />
        </mxCell>
        <mxCell id="jbp8lbYopmbo1rsb0xGf-83" value="OrderProduct" style="swimlane;fontStyle=1;align=center;verticalAlign=top;childLayout=stackLayout;horizontal=1;startSize=26;horizontalStack=0;resizeParent=1;resizeParentMax=0;resizeLast=0;collapsible=1;marginBottom=0;" vertex="1" parent="1">
          <mxGeometry x="1190" y="-500" width="320" height="130" as="geometry" />
        </mxCell>
        <mxCell id="jbp8lbYopmbo1rsb0xGf-84" value="+ id: string&#xa;" style="text;strokeColor=none;fillColor=none;align=left;verticalAlign=top;spacingLeft=4;spacingRight=4;overflow=hidden;rotatable=0;points=[[0,0.5],[1,0.5]];portConstraint=eastwest;" vertex="1" parent="jbp8lbYopmbo1rsb0xGf-83">
          <mxGeometry y="26" width="320" height="26" as="geometry" />
        </mxCell>
        <mxCell id="jbp8lbYopmbo1rsb0xGf-85" value="+ cost: number" style="text;strokeColor=none;fillColor=none;align=left;verticalAlign=top;spacingLeft=4;spacingRight=4;overflow=hidden;rotatable=0;points=[[0,0.5],[1,0.5]];portConstraint=eastwest;" vertex="1" parent="jbp8lbYopmbo1rsb0xGf-83">
          <mxGeometry y="52" width="320" height="26" as="geometry" />
        </mxCell>
        <mxCell id="jbp8lbYopmbo1rsb0xGf-86" value="+ originalProductId: string" style="text;strokeColor=none;fillColor=none;align=left;verticalAlign=top;spacingLeft=4;spacingRight=4;overflow=hidden;rotatable=0;points=[[0,0.5],[1,0.5]];portConstraint=eastwest;" vertex="1" parent="jbp8lbYopmbo1rsb0xGf-83">
          <mxGeometry y="78" width="320" height="26" as="geometry" />
        </mxCell>
        <mxCell id="jbp8lbYopmbo1rsb0xGf-87" value="+ number: number" style="text;strokeColor=none;fillColor=none;align=left;verticalAlign=top;spacingLeft=4;spacingRight=4;overflow=hidden;rotatable=0;points=[[0,0.5],[1,0.5]];portConstraint=eastwest;" vertex="1" parent="jbp8lbYopmbo1rsb0xGf-83">
          <mxGeometry y="104" width="320" height="26" as="geometry" />
        </mxCell>
        <mxCell id="jbp8lbYopmbo1rsb0xGf-90" value="QueryDirector" style="swimlane;fontStyle=1;align=center;verticalAlign=top;childLayout=stackLayout;horizontal=1;startSize=26;horizontalStack=0;resizeParent=1;resizeParentMax=0;resizeLast=0;collapsible=1;marginBottom=0;fontColor=#FF0000;" vertex="1" parent="1">
          <mxGeometry x="-621" y="-200" width="415" height="112" as="geometry" />
        </mxCell>
        <mxCell id="jbp8lbYopmbo1rsb0xGf-91" value="- strategy: IProductsSortingStrategy" style="text;strokeColor=none;fillColor=none;align=left;verticalAlign=top;spacingLeft=4;spacingRight=4;overflow=hidden;rotatable=0;points=[[0,0.5],[1,0.5]];portConstraint=eastwest;fontColor=#FF0000;" vertex="1" parent="jbp8lbYopmbo1rsb0xGf-90">
          <mxGeometry y="26" width="415" height="26" as="geometry" />
        </mxCell>
        <mxCell id="jbp8lbYopmbo1rsb0xGf-92" value="" style="line;strokeWidth=1;fillColor=none;align=left;verticalAlign=middle;spacingTop=-1;spacingLeft=3;spacingRight=3;rotatable=0;labelPosition=right;points=[];portConstraint=eastwest;strokeColor=inherit;fontColor=#FF0000;" vertex="1" parent="jbp8lbYopmbo1rsb0xGf-90">
          <mxGeometry y="52" width="415" height="8" as="geometry" />
        </mxCell>
        <mxCell id="jbp8lbYopmbo1rsb0xGf-93" value="+ sort(products: Product[]) : Product[]" style="text;strokeColor=none;fillColor=none;align=left;verticalAlign=top;spacingLeft=4;spacingRight=4;overflow=hidden;rotatable=0;points=[[0,0.5],[1,0.5]];portConstraint=eastwest;fontColor=#FF0000;" vertex="1" parent="jbp8lbYopmbo1rsb0xGf-90">
          <mxGeometry y="60" width="415" height="26" as="geometry" />
        </mxCell>
        <mxCell id="jbp8lbYopmbo1rsb0xGf-94" value="+ setStrategy(strategy: IProductSortingStrategy)" style="text;strokeColor=none;fillColor=none;align=left;verticalAlign=top;spacingLeft=4;spacingRight=4;overflow=hidden;rotatable=0;points=[[0,0.5],[1,0.5]];portConstraint=eastwest;fontColor=#FF0000;" vertex="1" parent="jbp8lbYopmbo1rsb0xGf-90">
          <mxGeometry y="86" width="415" height="26" as="geometry" />
        </mxCell>
        <mxCell id="jbp8lbYopmbo1rsb0xGf-110" value="&lt;&lt;enumeration&gt;&gt;&#xa;PostsFiltrationType" style="swimlane;fontStyle=1;childLayout=stackLayout;horizontal=1;startSize=31;horizontalStack=0;resizeParent=1;resizeParentMax=0;resizeLast=0;collapsible=1;marginBottom=0;labelBackgroundColor=none;fontColor=#000000;" vertex="1" parent="1">
          <mxGeometry x="75" y="1060" width="140" height="83" as="geometry" />
        </mxCell>
        <mxCell id="jbp8lbYopmbo1rsb0xGf-111" value="Date" style="text;align=left;verticalAlign=top;spacingLeft=4;spacingRight=4;overflow=hidden;rotatable=0;points=[[0,0.5],[1,0.5]];portConstraint=eastwest;labelBackgroundColor=none;fontColor=#000000;" vertex="1" parent="jbp8lbYopmbo1rsb0xGf-110">
          <mxGeometry y="31" width="140" height="26" as="geometry" />
        </mxCell>
        <mxCell id="jbp8lbYopmbo1rsb0xGf-114" value="Cost" style="text;align=left;verticalAlign=top;spacingLeft=4;spacingRight=4;overflow=hidden;rotatable=0;points=[[0,0.5],[1,0.5]];portConstraint=eastwest;labelBackgroundColor=none;fontColor=#000000;" vertex="1" parent="jbp8lbYopmbo1rsb0xGf-110">
          <mxGeometry y="57" width="140" height="26" as="geometry" />
        </mxCell>
        <mxCell id="jbp8lbYopmbo1rsb0xGf-116" style="edgeStyle=orthogonalEdgeStyle;rounded=0;orthogonalLoop=1;jettySize=auto;html=1;startArrow=none;startFill=0;endArrow=open;endFill=0;startSize=10;endSize=10;" edge="1" parent="1" source="jbp8lbYopmbo1rsb0xGf-117" target="jbp8lbYopmbo1rsb0xGf-110">
          <mxGeometry relative="1" as="geometry" />
        </mxCell>
        <mxCell id="jbp8lbYopmbo1rsb0xGf-128" style="edgeStyle=orthogonalEdgeStyle;rounded=0;orthogonalLoop=1;jettySize=auto;html=1;endArrow=diamond;endFill=0;startSize=10;endSize=10;" edge="1" parent="1" source="jbp8lbYopmbo1rsb0xGf-117" target="jbp8lbYopmbo1rsb0xGf-123">
          <mxGeometry relative="1" as="geometry" />
        </mxCell>
        <mxCell id="jbp8lbYopmbo1rsb0xGf-117" value="OrdersFiltrationDto" style="swimlane;fontStyle=1;align=center;verticalAlign=top;childLayout=stackLayout;horizontal=1;startSize=26;horizontalStack=0;resizeParent=1;resizeParentMax=0;resizeLast=0;collapsible=1;marginBottom=0;" vertex="1" parent="1">
          <mxGeometry x="40" y="910" width="210" height="78" as="geometry" />
        </mxCell>
        <mxCell id="jbp8lbYopmbo1rsb0xGf-118" value="+ type: PostsFiltrationType" style="text;strokeColor=none;fillColor=none;align=left;verticalAlign=top;spacingLeft=4;spacingRight=4;overflow=hidden;rotatable=0;points=[[0,0.5],[1,0.5]];portConstraint=eastwest;" vertex="1" parent="jbp8lbYopmbo1rsb0xGf-117">
          <mxGeometry y="26" width="210" height="26" as="geometry" />
        </mxCell>
        <mxCell id="jbp8lbYopmbo1rsb0xGf-119" value="+ direction: boolean " style="text;strokeColor=none;fillColor=none;align=left;verticalAlign=top;spacingLeft=4;spacingRight=4;overflow=hidden;rotatable=0;points=[[0,0.5],[1,0.5]];portConstraint=eastwest;" vertex="1" parent="jbp8lbYopmbo1rsb0xGf-117">
          <mxGeometry y="52" width="210" height="26" as="geometry" />
        </mxCell>
        <mxCell id="jbp8lbYopmbo1rsb0xGf-121" value="true - по возрастанию, false - убыванию" style="shape=note;whiteSpace=wrap;html=1;backgroundOutline=1;darkOpacity=0.05;" vertex="1" parent="1">
          <mxGeometry x="300" y="996" width="190" height="100" as="geometry" />
        </mxCell>
        <mxCell id="jbp8lbYopmbo1rsb0xGf-122" value="" style="endArrow=none;dashed=1;html=1;rounded=0;startSize=10;endSize=10;" edge="1" parent="1" source="jbp8lbYopmbo1rsb0xGf-119" target="jbp8lbYopmbo1rsb0xGf-121">
          <mxGeometry width="50" height="50" relative="1" as="geometry">
            <mxPoint x="280" y="1180" as="sourcePoint" />
            <mxPoint x="330" y="1130" as="targetPoint" />
          </mxGeometry>
        </mxCell>
        <mxCell id="jbp8lbYopmbo1rsb0xGf-123" value="RequestOrdersStatisticDto" style="swimlane;fontStyle=1;align=center;verticalAlign=top;childLayout=stackLayout;horizontal=1;startSize=26;horizontalStack=0;resizeParent=1;resizeParentMax=0;resizeLast=0;collapsible=1;marginBottom=0;" vertex="1" parent="1">
          <mxGeometry x="40" y="640" width="210" height="208" as="geometry" />
        </mxCell>
        <mxCell id="jbp8lbYopmbo1rsb0xGf-124" value="+ filters: OrderFiltrationDto[]" style="text;strokeColor=none;fillColor=none;align=left;verticalAlign=top;spacingLeft=4;spacingRight=4;overflow=hidden;rotatable=0;points=[[0,0.5],[1,0.5]];portConstraint=eastwest;" vertex="1" parent="jbp8lbYopmbo1rsb0xGf-123">
          <mxGeometry y="26" width="210" height="26" as="geometry" />
        </mxCell>
        <mxCell id="jbp8lbYopmbo1rsb0xGf-125" value="+ categoryIds: string[] " style="text;strokeColor=none;fillColor=none;align=left;verticalAlign=top;spacingLeft=4;spacingRight=4;overflow=hidden;rotatable=0;points=[[0,0.5],[1,0.5]];portConstraint=eastwest;" vertex="1" parent="jbp8lbYopmbo1rsb0xGf-123">
          <mxGeometry y="52" width="210" height="26" as="geometry" />
        </mxCell>
        <mxCell id="jbp8lbYopmbo1rsb0xGf-129" value="+ manufacturerId: string " style="text;strokeColor=none;fillColor=none;align=left;verticalAlign=top;spacingLeft=4;spacingRight=4;overflow=hidden;rotatable=0;points=[[0,0.5],[1,0.5]];portConstraint=eastwest;" vertex="1" parent="jbp8lbYopmbo1rsb0xGf-123">
          <mxGeometry y="78" width="210" height="26" as="geometry" />
        </mxCell>
        <mxCell id="jbp8lbYopmbo1rsb0xGf-130" value="+ after: Date?" style="text;strokeColor=none;fillColor=none;align=left;verticalAlign=top;spacingLeft=4;spacingRight=4;overflow=hidden;rotatable=0;points=[[0,0.5],[1,0.5]];portConstraint=eastwest;" vertex="1" parent="jbp8lbYopmbo1rsb0xGf-123">
          <mxGeometry y="104" width="210" height="26" as="geometry" />
        </mxCell>
        <mxCell id="jbp8lbYopmbo1rsb0xGf-131" value="+ before: Date?" style="text;strokeColor=none;fillColor=none;align=left;verticalAlign=top;spacingLeft=4;spacingRight=4;overflow=hidden;rotatable=0;points=[[0,0.5],[1,0.5]];portConstraint=eastwest;" vertex="1" parent="jbp8lbYopmbo1rsb0xGf-123">
          <mxGeometry y="130" width="210" height="26" as="geometry" />
        </mxCell>
        <mxCell id="jbp8lbYopmbo1rsb0xGf-132" value="+ minCost: number?" style="text;strokeColor=none;fillColor=none;align=left;verticalAlign=top;spacingLeft=4;spacingRight=4;overflow=hidden;rotatable=0;points=[[0,0.5],[1,0.5]];portConstraint=eastwest;" vertex="1" parent="jbp8lbYopmbo1rsb0xGf-123">
          <mxGeometry y="156" width="210" height="26" as="geometry" />
        </mxCell>
        <mxCell id="jbp8lbYopmbo1rsb0xGf-133" value="+ maxCost: number?" style="text;strokeColor=none;fillColor=none;align=left;verticalAlign=top;spacingLeft=4;spacingRight=4;overflow=hidden;rotatable=0;points=[[0,0.5],[1,0.5]];portConstraint=eastwest;" vertex="1" parent="jbp8lbYopmbo1rsb0xGf-123">
          <mxGeometry y="182" width="210" height="26" as="geometry" />
        </mxCell>
        <mxCell id="jbp8lbYopmbo1rsb0xGf-134" value="CategoryStatisticDto" style="swimlane;fontStyle=1;align=center;verticalAlign=top;childLayout=stackLayout;horizontal=1;startSize=26;horizontalStack=0;resizeParent=1;resizeParentMax=0;resizeLast=0;collapsible=1;marginBottom=0;" vertex="1" parent="1">
          <mxGeometry x="580" y="640" width="210" height="104" as="geometry" />
        </mxCell>
        <mxCell id="jbp8lbYopmbo1rsb0xGf-137" value="+ name: string " style="text;strokeColor=none;fillColor=none;align=left;verticalAlign=top;spacingLeft=4;spacingRight=4;overflow=hidden;rotatable=0;points=[[0,0.5],[1,0.5]];portConstraint=eastwest;" vertex="1" parent="jbp8lbYopmbo1rsb0xGf-134">
          <mxGeometry y="26" width="210" height="26" as="geometry" />
        </mxCell>
        <mxCell id="jbp8lbYopmbo1rsb0xGf-135" value="+ totalNumberOfOrders: number" style="text;strokeColor=none;fillColor=none;align=left;verticalAlign=top;spacingLeft=4;spacingRight=4;overflow=hidden;rotatable=0;points=[[0,0.5],[1,0.5]];portConstraint=eastwest;" vertex="1" parent="jbp8lbYopmbo1rsb0xGf-134">
          <mxGeometry y="52" width="210" height="26" as="geometry" />
        </mxCell>
        <mxCell id="jbp8lbYopmbo1rsb0xGf-141" value="+ totalCost: number" style="text;strokeColor=none;fillColor=none;align=left;verticalAlign=top;spacingLeft=4;spacingRight=4;overflow=hidden;rotatable=0;points=[[0,0.5],[1,0.5]];portConstraint=eastwest;" vertex="1" parent="jbp8lbYopmbo1rsb0xGf-134">
          <mxGeometry y="78" width="210" height="26" as="geometry" />
        </mxCell>
        <mxCell id="jbp8lbYopmbo1rsb0xGf-169" value="OrdersStatisticQueryTranslator" style="swimlane;fontStyle=1;align=center;verticalAlign=top;childLayout=stackLayout;horizontal=1;startSize=26;horizontalStack=0;resizeParent=1;resizeParentMax=0;resizeLast=0;collapsible=1;marginBottom=0;fontColor=#FF0000;" vertex="1" parent="1">
          <mxGeometry x="-621" y="252" width="415" height="112" as="geometry" />
        </mxCell>
        <mxCell id="jbp8lbYopmbo1rsb0xGf-170" value="- strategy: IProductsSortingStrategy" style="text;strokeColor=none;fillColor=none;align=left;verticalAlign=top;spacingLeft=4;spacingRight=4;overflow=hidden;rotatable=0;points=[[0,0.5],[1,0.5]];portConstraint=eastwest;fontColor=#FF0000;" vertex="1" parent="jbp8lbYopmbo1rsb0xGf-169">
          <mxGeometry y="26" width="415" height="26" as="geometry" />
        </mxCell>
        <mxCell id="jbp8lbYopmbo1rsb0xGf-171" value="" style="line;strokeWidth=1;fillColor=none;align=left;verticalAlign=middle;spacingTop=-1;spacingLeft=3;spacingRight=3;rotatable=0;labelPosition=right;points=[];portConstraint=eastwest;strokeColor=inherit;fontColor=#FF0000;" vertex="1" parent="jbp8lbYopmbo1rsb0xGf-169">
          <mxGeometry y="52" width="415" height="8" as="geometry" />
        </mxCell>
        <mxCell id="jbp8lbYopmbo1rsb0xGf-172" value="+ sort(products: Product[]) : Product[]" style="text;strokeColor=none;fillColor=none;align=left;verticalAlign=top;spacingLeft=4;spacingRight=4;overflow=hidden;rotatable=0;points=[[0,0.5],[1,0.5]];portConstraint=eastwest;fontColor=#FF0000;" vertex="1" parent="jbp8lbYopmbo1rsb0xGf-169">
          <mxGeometry y="60" width="415" height="26" as="geometry" />
        </mxCell>
        <mxCell id="jbp8lbYopmbo1rsb0xGf-173" value="+ translateQuery(query: OrdersStatisticQuery): (...args: any[]) =&gt; any" style="text;strokeColor=none;fillColor=none;align=left;verticalAlign=top;spacingLeft=4;spacingRight=4;overflow=hidden;rotatable=0;points=[[0,0.5],[1,0.5]];portConstraint=eastwest;fontColor=#FF0000;" vertex="1" parent="jbp8lbYopmbo1rsb0xGf-169">
          <mxGeometry y="86" width="415" height="26" as="geometry" />
        </mxCell>
        <mxCell id="jbp8lbYopmbo1rsb0xGf-174" value="&lt;&lt;interface&gt;&gt;&#xa;IOrdersStatisticQueryTranslator" style="swimlane;fontStyle=1;align=center;verticalAlign=top;childLayout=stackLayout;horizontal=1;startSize=37;horizontalStack=0;resizeParent=1;resizeParentMax=0;resizeLast=0;collapsible=1;marginBottom=0;fontColor=#FF0000;" vertex="1" parent="1">
          <mxGeometry x="-601" y="433" width="415" height="123" as="geometry" />
        </mxCell>
        <mxCell id="jbp8lbYopmbo1rsb0xGf-175" value="- strategy: IProductsSortingStrategy" style="text;strokeColor=none;fillColor=none;align=left;verticalAlign=top;spacingLeft=4;spacingRight=4;overflow=hidden;rotatable=0;points=[[0,0.5],[1,0.5]];portConstraint=eastwest;fontColor=#FF0000;" vertex="1" parent="jbp8lbYopmbo1rsb0xGf-174">
          <mxGeometry y="37" width="415" height="26" as="geometry" />
        </mxCell>
        <mxCell id="jbp8lbYopmbo1rsb0xGf-176" value="" style="line;strokeWidth=1;fillColor=none;align=left;verticalAlign=middle;spacingTop=-1;spacingLeft=3;spacingRight=3;rotatable=0;labelPosition=right;points=[];portConstraint=eastwest;strokeColor=inherit;fontColor=#FF0000;" vertex="1" parent="jbp8lbYopmbo1rsb0xGf-174">
          <mxGeometry y="63" width="415" height="8" as="geometry" />
        </mxCell>
        <mxCell id="jbp8lbYopmbo1rsb0xGf-177" value="+ sort(products: Product[]) : Product[]" style="text;strokeColor=none;fillColor=none;align=left;verticalAlign=top;spacingLeft=4;spacingRight=4;overflow=hidden;rotatable=0;points=[[0,0.5],[1,0.5]];portConstraint=eastwest;fontColor=#FF0000;" vertex="1" parent="jbp8lbYopmbo1rsb0xGf-174">
          <mxGeometry y="71" width="415" height="26" as="geometry" />
        </mxCell>
        <mxCell id="jbp8lbYopmbo1rsb0xGf-178" value="+ translateQuery(query: OrdersStatisticQuery): (...args: any[]) =&gt; any" style="text;strokeColor=none;fillColor=none;align=left;verticalAlign=top;spacingLeft=4;spacingRight=4;overflow=hidden;rotatable=0;points=[[0,0.5],[1,0.5]];portConstraint=eastwest;fontColor=#FF0000;" vertex="1" parent="jbp8lbYopmbo1rsb0xGf-174">
          <mxGeometry y="97" width="415" height="26" as="geometry" />
        </mxCell>
        <mxCell id="jbp8lbYopmbo1rsb0xGf-179" value="OrdersStatisticQuery" style="swimlane;fontStyle=1;align=center;verticalAlign=top;childLayout=stackLayout;horizontal=1;startSize=26;horizontalStack=0;resizeParent=1;resizeParentMax=0;resizeLast=0;collapsible=1;marginBottom=0;fontColor=#FF0000;" vertex="1" parent="1">
          <mxGeometry x="-397.5" y="-19" width="210" height="208" as="geometry" />
        </mxCell>
        <mxCell id="jbp8lbYopmbo1rsb0xGf-180" value="+ filters: OrderFiltrationDto[]?" style="text;strokeColor=none;fillColor=none;align=left;verticalAlign=top;spacingLeft=4;spacingRight=4;overflow=hidden;rotatable=0;points=[[0,0.5],[1,0.5]];portConstraint=eastwest;fontColor=#FF0000;" vertex="1" parent="jbp8lbYopmbo1rsb0xGf-179">
          <mxGeometry y="26" width="210" height="26" as="geometry" />
        </mxCell>
        <mxCell id="jbp8lbYopmbo1rsb0xGf-181" value="+ categoryIds: string[]? " style="text;strokeColor=none;fillColor=none;align=left;verticalAlign=top;spacingLeft=4;spacingRight=4;overflow=hidden;rotatable=0;points=[[0,0.5],[1,0.5]];portConstraint=eastwest;fontColor=#FF0000;" vertex="1" parent="jbp8lbYopmbo1rsb0xGf-179">
          <mxGeometry y="52" width="210" height="26" as="geometry" />
        </mxCell>
        <mxCell id="jbp8lbYopmbo1rsb0xGf-182" value="+ manufacturerId: string? " style="text;strokeColor=none;fillColor=none;align=left;verticalAlign=top;spacingLeft=4;spacingRight=4;overflow=hidden;rotatable=0;points=[[0,0.5],[1,0.5]];portConstraint=eastwest;fontColor=#FF0000;" vertex="1" parent="jbp8lbYopmbo1rsb0xGf-179">
          <mxGeometry y="78" width="210" height="26" as="geometry" />
        </mxCell>
        <mxCell id="jbp8lbYopmbo1rsb0xGf-183" value="+ after: Date?" style="text;strokeColor=none;fillColor=none;align=left;verticalAlign=top;spacingLeft=4;spacingRight=4;overflow=hidden;rotatable=0;points=[[0,0.5],[1,0.5]];portConstraint=eastwest;fontColor=#FF0000;" vertex="1" parent="jbp8lbYopmbo1rsb0xGf-179">
          <mxGeometry y="104" width="210" height="26" as="geometry" />
        </mxCell>
        <mxCell id="jbp8lbYopmbo1rsb0xGf-184" value="+ before: Date?" style="text;strokeColor=none;fillColor=none;align=left;verticalAlign=top;spacingLeft=4;spacingRight=4;overflow=hidden;rotatable=0;points=[[0,0.5],[1,0.5]];portConstraint=eastwest;fontColor=#FF0000;" vertex="1" parent="jbp8lbYopmbo1rsb0xGf-179">
          <mxGeometry y="130" width="210" height="26" as="geometry" />
        </mxCell>
        <mxCell id="jbp8lbYopmbo1rsb0xGf-185" value="+ minCost: number?" style="text;strokeColor=none;fillColor=none;align=left;verticalAlign=top;spacingLeft=4;spacingRight=4;overflow=hidden;rotatable=0;points=[[0,0.5],[1,0.5]];portConstraint=eastwest;fontColor=#FF0000;" vertex="1" parent="jbp8lbYopmbo1rsb0xGf-179">
          <mxGeometry y="156" width="210" height="26" as="geometry" />
        </mxCell>
        <mxCell id="jbp8lbYopmbo1rsb0xGf-186" value="+ maxCost: number?" style="text;strokeColor=none;fillColor=none;align=left;verticalAlign=top;spacingLeft=4;spacingRight=4;overflow=hidden;rotatable=0;points=[[0,0.5],[1,0.5]];portConstraint=eastwest;fontColor=#FF0000;" vertex="1" parent="jbp8lbYopmbo1rsb0xGf-179">
          <mxGeometry y="182" width="210" height="26" as="geometry" />
        </mxCell>
      </root>
    </mxGraphModel>
  </diagram>
</mxfile>
